:version 1.10
:name ASF
:units
  mass 1
  length 1
  angle deg
:documentation
  ASF file generated by Kaydara
:root
  axis xyz
  order  tx ty tz rx ry rz
  position 0 0 0
  orientation 0 0 0
:bonedata
  begin
    id 1
    name RightUpLegDummy
    direction -1 2.30186e-007 8.31532e-007
    length 4.46685
    axis 0 0 0 xyz
  end
  begin
    id 2
    name RightUpLeg
    direction -2.30187e-007 -1 1.24343e-010
    length 16.4045
    axis -3.49089 -0.000906625 0.000286804 xyz
    dof rx ry rz
  end
  begin
    id 3
    name RightLeg
    direction -2.30181e-007 -1 -4.17157e-009
    length 17.5097
    axis 3.68512 0.0193738 -0.131023 xyz
    dof rx ry rz
  end
  begin
    id 4
    name RightFoot
    direction 8.31421e-007 -4.51202e-011 1
    length 6.49508
    axis 4.81691e-005 -0.120479 -0.188788 xyz
    dof rx ry rz
  end
  begin
    id 5
    name RightToes
    direction 0.00124746 -0.014064 0.9999
    length 3.85082
    axis 0.000481921 0.542163 -0.142578 xyz
    dof rx ry rz
  end
  begin
    id 6
    name SpineDummy
    direction 0.0717043 0.9409 -0.331007
    length 10.0032
    axis 0 0 0 xyz
  end
  begin
    id 7
    name Spine
    direction 2.30186e-007 1 4.58806e-011
    length 9.84055
    axis -0.001389 0.000121418 2.40972e-006 xyz
    dof rx ry rz
  end
  begin
    id 8
    name Spine1
    direction 0 0 0
    length 0
    axis -0.001389 0.000121451 1.30017e-006 xyz
    dof rx ry rz
  end
  begin
    id 9
    name HEadDummy
    direction -0.00347485 0.950688 -0.310128
    length 8.00997
    axis -0.001389 0.000121451 1.30017e-006 xyz
  end
  begin
    id 10
    name HEad
    direction -0.0222688 0.980941 0.193023
    length 5.12695
    axis -0.001389 0.000121451 1.30017e-006 xyz
    dof rx ry rz
  end
  begin
    id 11
    name LeftShoulder1Dummy
    direction 0.988871 0.146793 -0.0242004
    length 3.5792
    axis -0.001389 0.000121451 1.30017e-006 xyz
  end
  begin
    id 12
    name LeftShoulder1
    direction 0.993832 0.108932 0.020779
    length 4.16823
    axis -0.001389 0.000121451 1.30017e-006 xyz
    dof rx ry rz
  end
  begin
    id 13
    name LeftArm
    direction 1 3.44807e-006 -8.31404e-007
    length 9.91437
    axis -23.1894 0.134784 0.967509 xyz
    dof rx ry rz
  end
  begin
    id 14
    name LeftForeArm
    direction 1 3.44842e-006 -8.31581e-007
    length 9.08575
    axis -9.91835 -0.06569 -0.177793 xyz
    dof rx ry rz
  end
  begin
    id 15
    name LeftHand
    direction 0.992938 -0.0411636 0.11126
    length 5.32135
    axis -0.00960232 -0.00340091 0.185173 xyz
    dof rx ry rz
  end
  begin
    id 16
    name RightShoulderDummy
    direction -0.988871 0.146793 -0.0241962
    length 3.5792
    axis -0.001389 0.000121451 1.30017e-006 xyz
  end
  begin
    id 17
    name RightShoulder
    direction -0.993832 0.108933 0.0207785
    length 4.16823
    axis 0.215806 0.000203643 -0.0068026 xyz
    dof rx ry rz
  end
  begin
    id 18
    name RightArm
    direction -1 3.90912e-006 8.31284e-007
    length 9.91437
    axis -23.2009 -0.134239 -0.964101 xyz
    dof rx ry rz
  end
  begin
    id 19
    name RightForeArm
    direction -1 3.90882e-006 8.31502e-007
    length 9.08575
    axis -9.92322 0.0658061 0.178867 xyz
    dof rx ry rz
  end
  begin
    id 20
    name RightHand
    direction -0.992843 -0.0414603 0.112003
    length 5.28593
    axis -0.00960638 0.00330671 -0.185228 xyz
    dof rx ry rz
  end
  begin
    id 21
    name LeftUpLegDummy
    direction 1 -2.30186e-007 -8.31532e-007
    length 4.46685
    axis 0 0 0 xyz
  end
  begin
    id 22
    name LeftUpLeg
    direction -2.30187e-007 -1 6.00931e-010
    length 16.4045
    axis -3.48766 0.00143442 -0.000524262 xyz
    dof rx ry rz
  end
  begin
    id 23
    name LeftLeg
    direction -2.30187e-007 -1 1.6669e-009
    length 17.5097
    axis 3.68178 -0.00654042 -0.000285133 xyz
    dof rx ry rz
  end
  begin
    id 24
    name LeftFoot
    direction 8.31532e-007 -4.54478e-011 1
    length 6.49508
    axis 1.87233e-006 4.66016e-005 -8.6538e-006 xyz
    dof rx ry rz
  end
  begin
    id 25
    name LeftToes
    direction 0.00818058 -0.00485161 0.999955
    length 3.85048
    axis 1.06247e-005 4.65869e-005 -8.65513e-006 xyz
    dof rx ry rz
  end
:hierarchy
  begin
    root RightUpLegDummy SpineDummy LeftUpLegDummy
    RightUpLegDummy RightUpLeg
    RightUpLeg RightLeg
    RightLeg RightFoot
    RightFoot RightToes
    SpineDummy Spine
    Spine Spine1
    Spine1 HEadDummy LeftShoulder1Dummy RightShoulderDummy
    HEadDummy HEad
    LeftShoulder1Dummy LeftShoulder1
    LeftShoulder1 LeftArm
    LeftArm LeftForeArm
    LeftForeArm LeftHand
    RightShoulderDummy RightShoulder
    RightShoulder RightArm
    RightArm RightForeArm
    RightForeArm RightHand
    LeftUpLegDummy LeftUpLeg
    LeftUpLeg LeftLeg
    LeftLeg LeftFoot
    LeftFoot LeftToes
  end

:SAMPLES-PER-SECOND 30
:FULLY-SPECIFIED
:DEGREES
18
root  40.1841 33.8963 -64.7046 -0.760779 -36.4059 0.890838
RightUpLeg  0.60438 -8.49022 -1.86449
RightLeg  8.8827 -8.78188 -0.792683
RightFoot  1.62897 0.00999662 -0.245939
RightToes  -24.8382 -0.109738 -0.215261
Spine  3.52974 -0.466119 -0.467063
Spine1  5.6302 -0.820832 -1.19361
HEad  8.6978 -1.45644 9.92843
LeftShoulder1  0 -2.42657e-020 -4.95415e-022
LeftArm  -10.5634 -28.1959 -80.2864
LeftForeArm  34.5481 -67.2335 -24.9913
LeftHand  -0.353081 -5.2452 7.33651
RightShoulder  0 2.42657e-020 1.07489e-018
RightArm  -31.0068 42.2708 77.9201
RightForeArm  18.3978 60.6041 18.3151
RightHand  -0.627216 19.3589 -3.30715
LeftUpLeg  -1.62324 -2.995 0.767826
LeftLeg  9.91795 -5.04304 -0.551485
LeftFoot  2.19948 0.00413902 -0.215624
LeftToes  -12.4348 8.72033e-007 1.17809e-007
19
root  40.1526 33.9021 -64.8045 -0.61235 -37.7747 0.815539
RightUpLeg  0.277277 -6.74258 -1.462
RightLeg  8.70023 -9.098 -0.791892
RightFoot  1.84667 0.0135426 -0.310263
RightToes  -24.6632 -0.108407 -0.21297
Spine  3.42045 -0.482551 -0.383253
Spine1  5.41851 -0.895247 -1.0127
HEad  8.64335 -3.86701 10.4943
LeftShoulder1  0 -2.42657e-020 -4.95415e-022
LeftArm  -9.25557 -28.2388 -80.0063
LeftForeArm  35.9266 -68.7895 -27.1966
LeftHand  -0.333734 -4.9699 7.31887
RightShoulder  0 2.42657e-020 1.07489e-018
RightArm  -37.1527 45.6789 77.0207
RightForeArm  8.66833 54.6761 14.4373
RightHand  -0.0773951 18.7343 -0.099196
LeftUpLeg  -1.84847 -2.42275 0.972337
LeftLeg  10.3737 -4.28271 -0.503202
LeftFoot  1.94373 0.00305447 -0.180067
LeftToes  -12.6133 8.72033e-007 1.17809e-007
20
root  40.0869 33.8943 -64.8583 -0.4751 -38.8048 0.718929
RightUpLeg  0.0375543 -5.25353 -1.09158
RightLeg  8.72204 -9.50709 -0.830787
RightFoot  1.84207 0.0152119 -0.340297
RightToes  -24.3762 -0.107174 -0.210694
Spine  3.28368 -0.641306 -0.236164
Spine1  5.18983 -1.2175 -0.784152
HEad  9.1824 -6.05574 11.0406
LeftShoulder1  0 -2.42657e-020 -4.95415e-022
LeftArm  -7.96685 -26.4726 -79.7996
LeftForeArm  40.1558 -71.3748 -31.7803
LeftHand  -0.347831 -5.06372 7.49426
RightShoulder  0 2.42657e-020 1.07489e-018
RightArm  -41.3478 42.633 76.8151
RightForeArm  4.50745 58.9559 17.0699
RightHand  0.0252371 17.5034 0.534141
LeftUpLeg  -2.00945 -1.663 1.23268
LeftLeg  10.8517 -4.0456 -0.509737
LeftFoot  1.61473 0.00382549 -0.161525
LeftToes  -13.0749 8.72033e-007 1.17809e-007
21
root  39.9952 33.8642 -64.8767 -0.268917 -39.1324 0.544596
RightUpLeg  -0.107257 -4.80539 -0.768766
RightLeg  8.88629 -9.65441 -0.871294
RightFoot  1.57365 0.0134419 -0.313844
RightToes  -24.089 -0.105645 -0.208858
Spine  3.17934 -1.10898 0.0581092
Spine1  5.06647 -2.14646 -0.327662
HEad  9.89242 -7.84116 11.427
LeftShoulder1  0 -2.42657e-020 -4.95415e-022
LeftArm  -6.436 -23.1565 -79.2284
LeftForeArm  48.8654 -74.8462 -41.0039
LeftHand  -0.365913 -5.04158 7.93802
RightShoulder  0 2.42657e-020 1.07489e-018
RightArm  -44.7975 34.3294 78.673
RightForeArm  12.3527 70.6544 30.293
RightHand  0.109664 16.7257 1.11641
LeftUpLeg  -2.4232 -1.37251 1.52867
LeftLeg  11.7293 -4.02611 -0.570103
LeftFoot  1.03603 0.00475208 -0.133497
LeftToes  -13.3508 8.72033e-007 1.17809e-007
22
root  39.8662 33.8095 -64.8652 -0.187492 -39.4198 0.368292
RightUpLeg  -0.238547 -4.77317 -0.496604
RightLeg  9.44407 -9.43952 -0.944397
RightFoot  1.01973 0.00841423 -0.235797
RightToes  -23.8933 -0.103766 -0.207003
Spine  3.24236 -1.64628 0.389888
Spine1  5.26304 -3.20003 0.1335
HEad  10.1117 -9.14688 12.2816
LeftShoulder1  0 -2.42657e-020 -4.95415e-022
LeftArm  -4.44203 -18.718 -78.0268
LeftForeArm  68.3087 -78.4033 -60.1395
LeftHand  -0.395704 -5.55428 7.7835
RightShoulder  0 2.42657e-020 1.07489e-018
RightArm  -53.3877 22.4763 83.5475
RightForeArm  62.9189 79.8764 96.2373
RightHand  0.180024 13.2854 1.91666
LeftUpLeg  -2.90862 -1.34754 1.80526
LeftLeg  13.1296 -3.84105 -0.640189
LeftFoot  0.190522 0.00500292 -0.0942537
LeftToes  -13.639 8.72033e-007 1.17809e-007
23
root  39.7301 33.7403 -64.8563 -0.257294 -39.9352 0.20749
RightUpLeg  -0.540535 -4.44513 -0.199733
RightLeg  10.5693 -9.30772 -1.11557
RightFoot  0.198626 0.000862516 -0.119631
RightToes  -23.5919 -0.101995 -0.204884
Spine  3.40781 -2.43649 0.788499
Spine1  5.71507 -4.82863 0.829425
HEad  9.61532 -9.81829 12.798
LeftShoulder1  0 -2.42657e-020 -4.95415e-022
LeftArm  -2.75567 -12.9997 -76.3476
LeftForeArm  104.229 -79.8717 -93.4604
LeftHand  -0.488299 -6.74971 7.90421
RightShoulder  0 2.42657e-020 1.07489e-018
RightArm  -63.165 12.1067 88.008
RightForeArm  118.006 73.1493 143.863
RightHand  -0.161521 14.0666 -0.939558
LeftUpLeg  -3.38877 -1.1389 2.10058
LeftLeg  14.8879 -3.61595 -0.717596
LeftFoot  -0.800188 0.00438345 -0.0519655
LeftToes  -13.9169 8.72033e-007 1.17809e-007
